<svg width="109" height="109" viewBox="0 0 109 109" fill="none" xmlns="http://www.w3.org/2000/svg">
<g clip-path="url(#clip0_0_44)">
<path d="M0.00012207 40.875H109V64.7188H0.00012207V40.875Z" fill="#E6E7E8"/>
<path d="M91.9689 15.3281H17.0314C5.74476 15.3281 0.00012207 23.716 0.00012207 34.0625V40.875H109V34.0625C109 23.716 103.255 15.3281 91.9689 15.3281Z" fill="#FF9933"/>
<path d="M0.00012207 71.5312C0.00012207 81.8777 5.74476 90.2656 17.0314 90.2656H91.9689C103.255 90.2656 109 81.8777 109 71.5312V64.7188H0.00012207V71.5312Z" fill="#128807"/>
<path fill-rule="evenodd" clip-rule="evenodd" d="M55.0281 41.8679C57.2042 41.8679 59.3313 42.5134 61.1405 43.7227C62.9496 44.9321 64.3593 46.6508 65.1913 48.6616C66.0232 50.6723 66.24 52.8847 65.8143 55.0187C65.3885 57.1527 64.3393 59.1125 62.7994 60.65C61.2595 62.1876 59.2981 63.2338 57.1634 63.6562C55.0287 64.0787 52.8167 63.8584 50.8072 63.0234C48.7978 62.1883 47.0812 60.7759 45.8747 58.9649C44.6681 57.1539 44.0259 55.0257 44.0293 52.8497C44.0343 49.9357 45.1952 47.1428 47.2573 45.0839C49.3194 43.025 52.1141 41.8684 55.0281 41.8679ZM47.6961 46.6282C47.8852 46.8427 47.9192 47.0727 47.7932 47.2651C47.7398 47.3537 47.6574 47.4211 47.5599 47.4559C47.4851 47.4837 47.4046 47.493 47.3254 47.4829C47.2462 47.4728 47.1706 47.4437 47.1052 47.398C46.8091 47.8219 46.5488 48.2696 46.3268 48.7366C46.584 48.9052 46.6692 49.1164 46.584 49.3497C46.5384 49.4685 46.4484 49.5648 46.3329 49.6183C46.2175 49.6717 46.0858 49.678 45.9658 49.6359C45.8431 49.8811 45.5723 50.9166 45.5689 51.1346C45.6817 51.1562 45.7831 51.2172 45.8551 51.3066C45.9311 51.3955 45.9701 51.5101 45.9641 51.6268C45.9317 51.947 45.7341 52.0833 45.4327 52.0952C45.385 52.4035 45.3901 53.4355 45.4378 53.6382C45.758 53.6723 45.9266 53.8119 45.9538 54.0555C45.9913 54.3178 45.8653 54.4881 45.5587 54.6073C45.6507 55.1131 45.7818 55.6104 45.9538 56.0975C46.0739 56.0613 46.2026 56.0655 46.32 56.1095C46.4341 56.1588 46.5244 56.244 46.5721 56.3615C46.6147 56.4535 46.6232 56.5489 46.601 56.6493C46.5851 56.724 46.5521 56.794 46.5045 56.8537C46.4569 56.9134 46.3961 56.9612 46.3268 56.9934C46.555 57.4668 46.8071 57.9131 47.1052 58.332C47.3708 58.2009 47.6025 58.2315 47.7592 58.4189C47.8281 58.4959 47.8674 58.5949 47.8699 58.6982C47.8751 58.7745 47.8618 58.851 47.8309 58.921C47.8001 58.9911 47.7526 59.0525 47.6927 59.1001C48.0334 59.4987 48.3961 59.8631 48.7912 60.1987C49.0144 60.0028 49.246 59.9721 49.4452 60.1118C49.5355 60.1748 49.5985 60.2583 49.6275 60.3605C49.6482 60.4328 49.6526 60.5089 49.6402 60.5831C49.6278 60.6574 49.5991 60.7279 49.556 60.7896C49.9868 61.086 50.4314 61.3414 50.8963 61.5629C51.0768 61.3091 51.2829 61.2239 51.506 61.3091C51.6032 61.344 51.6875 61.4075 51.7479 61.4913C51.833 61.6276 51.845 61.7775 51.7956 61.9375C52.2861 62.1113 52.78 62.2441 53.2909 62.3344C53.3914 62.0465 53.5651 61.912 53.7967 61.929C53.904 61.9375 54.0011 61.9699 54.0863 62.0431C54.2055 62.1521 54.2617 62.2901 54.2515 62.4604C54.776 62.4979 55.2887 62.5013 55.7979 62.4604C55.8354 62.1317 55.9665 61.9665 56.2305 61.929C56.3308 61.9152 56.4328 61.9356 56.52 61.9869C56.5838 62.023 56.6387 62.073 56.6805 62.1331C56.7224 62.1933 56.7502 62.262 56.7619 62.3344C57.2762 62.239 57.7752 62.1079 58.2572 61.9358C58.2146 61.614 58.293 61.4215 58.5093 61.321C58.5881 61.2871 58.6742 61.2737 58.7596 61.2818C58.8482 61.2887 58.9282 61.3159 58.993 61.3738C59.056 61.4266 59.1088 61.4913 59.1701 61.5577C59.6343 61.3386 60.0798 61.0817 60.5019 60.7896C60.3282 60.5171 60.4304 60.2566 60.5718 60.1407C60.6211 60.0985 60.6783 60.0665 60.7401 60.0466C60.8019 60.0267 60.867 60.0193 60.9317 60.0248C60.9964 60.0304 61.0593 60.0487 61.1168 60.0789C61.1743 60.109 61.2253 60.1503 61.2666 60.2004C61.6601 59.8631 62.0296 59.497 62.36 59.1035C62.1676 58.8838 62.1301 58.6522 62.2715 58.4529C62.3287 58.3636 62.4165 58.2983 62.5184 58.269C62.5911 58.246 62.668 58.24 62.7433 58.2515C62.8187 58.263 62.8903 58.2917 62.9527 58.3354C63.2508 57.9062 63.5097 57.4617 63.7311 56.9951C63.4824 56.8282 63.3921 56.6323 63.4671 56.4092C63.4943 56.31 63.5543 56.2229 63.6374 56.1623C63.7035 56.1161 63.7795 56.0859 63.8593 56.0741C63.9391 56.0623 64.0205 56.0691 64.0972 56.0941C64.2079 55.854 64.4838 54.8423 64.4992 54.5971C64.3813 54.5756 64.275 54.5128 64.1994 54.4199C64.1597 54.374 64.13 54.3203 64.1121 54.2622C64.0943 54.2042 64.0886 54.1431 64.0955 54.0827C64.102 53.9749 64.1467 53.8728 64.2216 53.7949C64.2728 53.7409 64.3355 53.6991 64.4051 53.6726C64.4747 53.646 64.5493 53.6355 64.6235 53.6416C64.6661 53.1265 64.6661 52.6087 64.6235 52.0935C64.2982 52.0611 64.1432 51.9351 64.1006 51.6779C64.0815 51.5807 64.0959 51.4798 64.1415 51.3918C64.1766 51.3237 64.227 51.2648 64.2888 51.2196C64.3506 51.1743 64.422 51.1441 64.4975 51.1312C64.408 50.6224 64.2752 50.1221 64.1006 49.6359C63.7856 49.6887 63.5914 49.6035 63.4875 49.3855C63.4606 49.3272 63.4455 49.2642 63.4431 49.2C63.4408 49.1358 63.4513 49.0718 63.474 49.0117C63.4966 48.9516 63.5311 48.8967 63.5752 48.85C63.6193 48.8034 63.6723 48.766 63.7311 48.74C63.5104 48.2718 63.25 47.8234 62.9527 47.3997C62.6785 47.5308 62.4554 47.5002 62.2987 47.3128C62.2291 47.2337 62.1904 47.1321 62.1897 47.0267C62.1865 46.9518 62.2009 46.8773 62.2316 46.809C62.2624 46.7407 62.3087 46.6805 62.3669 46.6333C62.0305 46.2396 61.6644 45.8723 61.2718 45.5347C61.0367 45.7357 60.8085 45.7613 60.6143 45.6216C60.5262 45.5628 60.4617 45.4747 60.4321 45.373C60.4109 45.3015 60.4063 45.2261 60.4187 45.1526C60.4311 45.0791 60.4602 45.0094 60.5036 44.9489C60.0791 44.6529 59.6308 44.3926 59.1633 44.1705C58.9879 44.4226 58.7903 44.5061 58.5672 44.4311C58.4683 44.3995 58.3819 44.3375 58.3202 44.254C58.2753 44.1875 58.2466 44.1114 58.2366 44.0318C58.2265 43.9522 58.2353 43.8714 58.2623 43.7959C57.7764 43.6201 57.2761 43.4874 56.767 43.399C56.6699 43.6749 56.4945 43.818 56.268 43.8044C56.1621 43.801 56.0603 43.7626 55.9784 43.6954C55.9177 43.6442 55.8703 43.579 55.8404 43.5054C55.8104 43.4318 55.7987 43.3521 55.8064 43.273C55.2918 43.2293 54.7745 43.2298 54.26 43.2747C54.2242 43.5813 54.0914 43.7567 53.8649 43.7942C53.763 43.8159 53.6568 43.8027 53.5634 43.7567C53.4937 43.7222 53.4333 43.6716 53.3871 43.6091C53.3409 43.5467 53.3102 43.474 53.2977 43.3973C52.7887 43.4899 52.288 43.6238 51.8007 43.7976C51.8552 44.099 51.77 44.2966 51.5622 44.4039C51.472 44.4499 51.3766 44.4686 51.271 44.4499C51.1916 44.439 51.1165 44.4078 51.0529 44.3591C50.9893 44.3104 50.9394 44.246 50.9082 44.1722C50.617 44.2812 49.6905 44.8177 49.5679 44.9523C49.6939 45.2043 49.665 45.4275 49.4912 45.5875C49.4421 45.6309 49.3849 45.664 49.3227 45.6847C49.2606 45.7055 49.195 45.7136 49.1297 45.7085C49.0644 45.7034 49.0008 45.6853 48.9427 45.6551C48.8845 45.625 48.833 45.5835 48.7912 45.533C48.3982 45.869 48.0321 46.2351 47.6961 46.6282Z" fill="#010088"/>
<path fill-rule="evenodd" clip-rule="evenodd" d="M59.7457 61.0178C59.7253 60.9957 59.7048 60.9804 59.6895 60.9565C58.6993 59.4429 57.7064 57.9311 56.7107 56.4211C56.6886 56.3785 56.663 56.3359 56.6426 56.2882C56.411 55.7484 56.1845 55.2085 55.9477 54.6703C55.9398 54.6425 55.9289 54.6157 55.9154 54.5902C55.82 54.626 55.7331 54.6669 55.6309 54.706L55.665 54.7929C55.8779 55.3158 56.0823 55.8403 56.2986 56.3632C56.3565 56.5028 56.3803 56.6493 56.411 56.7958C56.5779 57.5775 56.7346 58.3627 56.9032 59.1461L57.4788 61.9443C57.4817 61.951 57.4827 61.9583 57.4818 61.9655C57.4809 61.9726 57.4781 61.9795 57.4737 61.9852L57.4499 61.9256C56.9832 60.4967 56.5046 59.0695 56.0363 57.6405C55.9426 57.3612 55.8592 57.0853 55.757 56.806C55.7093 56.6663 55.694 56.5233 55.6718 56.3785C55.6122 55.9732 55.5611 55.5644 55.4947 55.1591C55.4862 55.062 55.4709 54.9666 55.4572 54.873C55.4531 54.834 55.4468 54.7954 55.4385 54.7571C55.3363 54.7674 55.2426 54.781 55.1404 54.7929C55.1404 54.8338 55.1439 54.8764 55.1473 54.9189C55.2069 55.4179 55.258 55.9187 55.3295 56.416C55.367 56.6885 55.3482 56.9559 55.3329 57.2284C55.3227 57.4583 55.3073 57.6882 55.2971 57.9198C55.2665 58.3865 55.2426 58.8515 55.2103 59.3164L55.1592 60.277C55.1302 60.822 55.0962 61.3653 55.0672 61.9069C55.0536 62.0601 55.0502 62.2168 55.0349 62.3667L54.994 61.8507L54.9412 60.7334L54.8799 59.7371C54.8628 59.3965 54.8407 59.0575 54.822 58.7169C54.8066 58.4938 54.7981 58.2707 54.7845 58.051C54.7658 57.6984 54.7436 57.3459 54.7266 56.9967C54.7098 56.8106 54.7144 56.6232 54.7402 56.4381C54.776 56.1861 54.8032 55.9289 54.8339 55.6734C54.8679 55.4214 54.8969 55.1676 54.9276 54.9189C54.931 54.8798 54.931 54.8389 54.9361 54.7929L54.638 54.7537C54.6295 54.8219 54.6142 54.8883 54.6023 54.9564C54.5315 55.4767 54.4588 55.9967 54.3843 56.5165C54.3638 56.7191 54.2838 56.9065 54.2156 57.0955C53.6911 58.6931 53.1648 60.2923 52.6334 61.8881C52.6215 61.9171 52.6164 61.9443 52.5943 61.9716C52.5943 61.9511 52.5943 61.9358 52.6028 61.9171C52.8225 60.8407 53.0439 59.7626 53.2721 58.6862C53.4186 57.9709 53.5702 57.2573 53.7149 56.5437L53.7558 56.4262C53.9755 55.8863 54.1867 55.3413 54.4115 54.8014C54.4194 54.7696 54.4308 54.7387 54.4456 54.7095C54.3518 54.6693 54.2575 54.6301 54.1629 54.5919C54.1509 54.6226 54.1322 54.6481 54.122 54.6788C53.8869 55.2204 53.657 55.7637 53.422 56.3053C53.4073 56.346 53.3891 56.3853 53.3675 56.4228C52.3625 57.9452 51.3605 59.4694 50.3615 60.9957C50.3478 61.0187 50.3298 61.0389 50.3087 61.0553C50.3172 61.028 50.3325 61.0059 50.3427 60.9821L52.8055 56.0992C52.8267 56.0549 52.853 56.0131 52.8838 55.9749L53.9363 54.563C53.9585 54.5391 53.9721 54.517 53.9925 54.4915C53.9057 54.4284 53.8359 54.3705 53.749 54.3041C53.7303 54.3263 53.7132 54.345 53.6979 54.3671C53.33 54.8287 52.9673 55.2936 52.6079 55.7535C52.567 55.796 52.5296 55.8403 52.4836 55.8795C51.1415 57.0802 49.7994 58.2741 48.4523 59.4765C48.425 59.4986 48.3978 59.5225 48.3637 59.5378C48.379 59.5225 48.3876 59.5037 48.3978 59.4918C49.5031 58.2571 50.5999 57.024 51.7001 55.7892C51.7632 55.7211 51.8262 55.653 51.8858 55.5797C52.0118 55.4333 52.1532 55.3038 52.3064 55.188L53.5293 54.2258C53.5565 54.2053 53.577 54.1832 53.6076 54.1627C53.5472 54.0812 53.4847 54.0011 53.4203 53.9226C53.393 53.9396 53.3709 53.9567 53.3454 53.9754C52.877 54.3262 52.4069 54.6737 51.9386 55.0262C51.8861 55.0658 51.8303 55.1005 51.7717 55.1301C50.1724 55.9374 48.5647 56.7447 46.962 57.552C46.9314 57.5656 46.9024 57.5826 46.8667 57.5826L46.9314 57.5366L49.9221 55.578C50.4432 55.2357 50.9661 54.8934 51.4838 54.5494C51.5281 54.5238 51.5741 54.5017 51.6133 54.4812C52.1566 54.2513 52.6982 54.0197 53.2364 53.7881C53.2619 53.7778 53.2874 53.7676 53.3181 53.7523L53.204 53.4713C53.1716 53.4798 53.1512 53.4883 53.1256 53.4968C52.5738 53.7165 52.0271 53.9396 51.4719 54.1576C51.3578 54.2002 51.2335 54.2207 51.1126 54.2462L47.3912 55.0194C46.9229 55.1199 46.446 55.2187 45.9759 55.3158C45.957 55.3203 45.9371 55.3178 45.9197 55.3089C46.0492 55.2681 46.1786 55.2221 46.3063 55.1795C47.9141 54.6498 49.5201 54.1219 51.1228 53.5888C51.2488 53.5462 51.3834 53.5343 51.5111 53.5139C52.0288 53.4423 52.5449 53.3674 53.0575 53.2942C53.089 53.2886 53.1203 53.2818 53.1512 53.2737C53.141 53.1749 53.1256 53.0762 53.1171 52.974L52.8685 53.0012L51.8398 53.1255C51.6473 53.1511 51.4566 53.1715 51.2675 53.1954C51.2216 53.2005 51.1773 53.2022 51.133 53.2005L50.0498 53.1375L49.4094 53.1017L48.3058 53.037L46.6964 52.9484C46.308 52.928 45.9299 52.9024 45.5433 52.8752C45.6046 52.8701 45.6728 52.8599 45.7392 52.8599L47.0591 52.7849L48.8031 52.6861L50.2474 52.6044L51.1534 52.5499C51.1892 52.5482 51.2318 52.5533 51.2675 52.5567L52.3064 52.681L53.0422 52.7696H53.1171C53.1256 52.6725 53.141 52.5805 53.1512 52.475C53.0882 52.4613 53.0166 52.4511 52.9536 52.4392C52.4989 52.3762 52.0476 52.3097 51.5928 52.2433C51.4984 52.2325 51.4041 52.22 51.3101 52.2059C51.258 52.1988 51.2067 52.1868 51.1568 52.1701C49.8029 51.7256 48.4574 51.2777 47.1051 50.8331C46.7288 50.7098 46.3529 50.5849 45.9776 50.4585C45.9452 50.4499 45.9146 50.4354 45.8874 50.4159L46.1241 50.4636L49.0143 51.0648C49.7875 51.2266 50.5727 51.3867 51.3459 51.5502C51.3924 51.5604 51.438 51.5747 51.4821 51.5927C52.0271 51.8073 52.567 52.0287 53.1171 52.2467L53.1989 52.2791C53.2364 52.1854 53.2772 52.0952 53.3181 51.9981C53.2904 51.9815 53.2613 51.9673 53.2312 51.9555C52.6896 51.7273 52.1498 51.494 51.6099 51.2606C51.5675 51.2427 51.5265 51.2216 51.4872 51.1976C49.9595 50.1979 48.4386 49.193 46.9092 48.1916C46.8891 48.1804 46.873 48.1631 46.8633 48.1422L46.9246 48.1763C48.4472 48.9427 49.9715 49.7091 51.4975 50.4738C51.7495 50.5998 51.9948 50.7514 52.2196 50.9234C52.5909 51.2112 52.969 51.4871 53.3471 51.7699C53.3726 51.7886 53.3947 51.8056 53.422 51.8227L53.6093 51.5859L53.5429 51.528L52.1583 50.4397C52.1106 50.4022 52.0731 50.3631 52.0322 50.3222C50.8264 48.9716 49.6189 47.6193 48.4165 46.2688C48.3991 46.2548 48.3856 46.2366 48.3773 46.216C48.4131 46.2194 48.4267 46.2432 48.4421 46.2585C49.1727 46.9057 49.8965 47.5529 50.6221 48.2001L52.4989 49.8726C52.533 49.9032 52.5653 49.9407 52.596 49.9748L53.6706 51.3407C53.6979 51.3713 53.7183 51.4037 53.749 51.4446L53.9959 51.2555C53.9806 51.2317 53.9602 51.2129 53.9483 51.1908C53.5974 50.7224 53.2483 50.2524 52.894 49.7857C52.8575 49.7308 52.824 49.6739 52.7935 49.6154C51.976 48.006 51.1654 46.3897 50.353 44.7785C50.3376 44.7479 50.3223 44.724 50.3189 44.6917C50.3342 44.7087 50.3496 44.724 50.3598 44.7394L52.1004 47.3996L53.3317 49.2731C53.3743 49.3446 53.422 49.4195 53.4492 49.4979C53.6792 50.0225 53.9006 50.5487 54.1237 51.0733C54.139 51.0971 54.1492 51.1227 54.1646 51.1533L54.4473 51.0358L54.4166 50.9643C54.2037 50.4329 53.9959 49.9015 53.7796 49.3736C53.72 49.239 53.6979 49.0994 53.6689 48.9597C53.4833 48.0724 53.3045 47.1833 53.1188 46.2943C52.9366 45.4393 52.7629 44.5912 52.5841 43.7328C52.5806 43.7277 52.5841 43.7209 52.5909 43.7039L52.7407 44.1586C53.2755 45.7646 53.8052 47.3741 54.3298 48.9835C54.374 49.1096 54.3894 49.2475 54.4081 49.3787C54.4711 49.8249 54.5341 50.2745 54.6057 50.7241C54.6176 50.8093 54.6227 50.8945 54.6397 50.9881L54.9361 50.9507V50.8383C54.8935 50.4823 54.8475 50.1246 54.8066 49.7704C54.7811 49.5626 54.7624 49.3599 54.7334 49.1573C54.7164 49.021 54.7164 48.8831 54.7334 48.7468C54.7453 48.5152 54.7624 48.2853 54.7726 48.0553L54.856 46.6673C54.8714 46.4186 54.8765 46.1666 54.8918 45.9179C54.9139 45.5943 54.931 45.2656 54.9497 44.9403C54.965 44.7019 54.9769 44.4617 54.9872 44.225C55.0008 43.944 55.0229 43.6647 55.0468 43.3854C55.0536 43.462 55.057 43.5404 55.0604 43.6221C55.0842 43.9644 55.1013 44.3068 55.1217 44.6508L55.2103 46.2109L55.2631 47.0863C55.2903 47.5921 55.3142 48.0996 55.3431 48.6055C55.3516 48.6821 55.355 48.7536 55.3602 48.8286C55.3823 49.0261 55.3431 49.222 55.3261 49.4178L55.2171 50.3103C55.2001 50.4789 55.1745 50.6475 55.1541 50.8178C55.1507 50.8587 55.1507 50.903 55.1387 50.9524C55.2443 50.9677 55.3397 50.9779 55.4453 50.9915C55.4606 50.9183 55.4674 50.8502 55.4794 50.7786C55.5611 50.2251 55.6395 49.6716 55.7178 49.1147C55.7246 49.0738 55.7416 49.0312 55.7519 48.9887C56.3071 47.323 56.8521 45.6556 57.4039 43.9866C57.4312 43.9099 57.4516 43.8367 57.4942 43.7635C57.4896 43.8023 57.4833 43.841 57.4754 43.8793C57.2268 45.0851 56.9679 46.2875 56.7209 47.4899C56.6102 48.0536 56.4927 48.6191 56.3752 49.1828C56.3669 49.2295 56.352 49.2748 56.3309 49.3174L55.6735 50.9609C55.6616 50.9847 55.6531 51.0103 55.6412 51.0409C55.7433 51.0801 55.8268 51.1193 55.9256 51.1584L55.9648 51.0767L56.6511 49.4638C56.6784 49.4093 56.6988 49.3565 56.7346 49.3123L59.7065 44.7785C59.7253 44.7547 59.7406 44.7308 59.7695 44.7138C59.7576 44.7377 59.7491 44.7615 59.7338 44.7853L57.2898 49.6392C57.2642 49.6852 57.2387 49.7312 57.208 49.7721C56.8538 50.2439 56.4978 50.7156 56.1487 51.184C56.1318 51.2108 56.113 51.2364 56.0925 51.2606L56.3343 51.4497C56.3534 51.4294 56.3711 51.4078 56.3871 51.385C56.7482 50.9251 57.1076 50.4636 57.4737 50.0037C57.5141 49.952 57.5591 49.9041 57.6083 49.8607C58.9537 48.6582 60.3009 47.4575 61.6481 46.2585C61.6702 46.2398 61.6856 46.2211 61.7213 46.2109L61.677 46.2654C61.1269 46.887 60.5768 47.5052 60.0182 48.1235C59.354 48.8643 58.6983 49.6035 58.0392 50.3443C58.0051 50.3818 57.9642 50.4142 57.9285 50.4448L56.5438 51.5331L56.4757 51.5876C56.5404 51.6694 56.5983 51.7477 56.6664 51.8295L56.7397 51.775L58.1584 50.7122C58.1946 50.6864 58.2321 50.6625 58.2708 50.6407C59.9058 49.8198 61.5306 49.0023 63.1554 48.1814C63.1826 48.1695 63.2047 48.1592 63.2337 48.1592C63.1588 48.2086 63.0889 48.2563 63.014 48.3023C61.5442 49.268 60.0744 50.2336 58.5995 51.1993C58.5586 51.2232 58.5211 51.247 58.4769 51.2657C57.9336 51.5008 57.3852 51.7324 56.847 51.9657L56.7601 51.9998C56.8061 52.0952 56.8385 52.1854 56.8793 52.2808L56.9577 52.2552C57.5044 52.039 58.0477 51.8124 58.5995 51.603C58.7357 51.5485 58.8856 51.5246 59.0338 51.494L61.5425 50.9728C62.3225 50.8127 63.0957 50.6492 63.8775 50.4874C63.949 50.4721 64.0154 50.4567 64.0904 50.4431C64.1091 50.4431 64.1261 50.4397 64.1534 50.4499L63.9149 50.5283C62.251 51.0784 60.5921 51.6268 58.9282 52.1701C58.8022 52.2144 58.6625 52.2263 58.5314 52.2467C58.1584 52.3029 57.7905 52.3523 57.4277 52.4051C57.2949 52.4239 57.1638 52.4443 57.0309 52.4613L56.9338 52.4784C56.9441 52.5788 56.9594 52.6725 56.9662 52.7815L57.2234 52.7543L58.1431 52.6453C58.373 52.6163 58.6131 52.584 58.8533 52.5618C58.9606 52.5533 59.0696 52.5635 59.1803 52.5686C59.4136 52.5788 59.6469 52.5993 59.8905 52.6095L61.2666 52.6912C61.471 52.7032 61.6753 52.7117 61.8865 52.7253L63.2899 52.8054C63.622 52.8258 63.9643 52.8411 64.2947 52.8616C64.3767 52.8663 64.4585 52.8736 64.54 52.8837L64.2913 52.9041L63.2609 52.9603L61.9853 53.0353L61.023 53.0864C60.5802 53.1136 60.1289 53.1392 59.6827 53.1681C59.4374 53.1783 59.1854 53.2022 58.9384 53.2039C58.7971 53.2073 58.6489 53.18 58.5109 53.1647C58.2082 53.1292 57.9056 53.0929 57.6032 53.0557L57.0224 52.9859H56.9662C56.9594 53.0847 56.9441 53.1818 56.9338 53.2856C57.5342 53.3745 58.1348 53.4614 58.7357 53.5462C58.9129 53.5684 59.0679 53.6382 59.2348 53.691L64.0784 55.2902C64.1099 55.2968 64.1395 55.3102 64.1653 55.3294C64.1244 55.3226 64.0853 55.3158 64.0444 55.3124L59.8377 54.4352L58.7272 54.2036C58.6915 54.1934 58.6438 54.1798 58.6046 54.161C58.0579 53.9448 57.5095 53.7233 56.9594 53.5036L56.8862 53.4781C56.8464 53.5714 56.8049 53.6639 56.7618 53.7557L56.8521 53.7983C57.3954 54.0299 57.9353 54.2598 58.4752 54.4932C58.5177 54.5119 58.5603 54.534 58.6046 54.5647L63.1383 57.5349C63.1605 57.552 63.1894 57.5724 63.2081 57.6048C63.186 57.5911 63.1605 57.5826 63.1417 57.569L60.7795 56.3836C59.9552 55.9647 59.1241 55.5491 58.2912 55.1301C58.2381 55.1038 58.1884 55.0712 58.1431 55.033C57.6747 54.6839 57.2012 54.3331 56.7329 53.9805C56.712 53.9629 56.6898 53.9469 56.6664 53.9328C56.6017 54.0112 56.5438 54.0878 56.4757 54.1696L56.5404 54.2207C56.9969 54.5851 57.4618 54.9496 57.9199 55.3124C57.9721 55.3497 58.0196 55.3931 58.0613 55.4418L61.6702 59.4799C61.6849 59.5001 61.6964 59.5226 61.7043 59.5463C61.6856 59.5259 61.66 59.5123 61.6413 59.4969C60.2873 58.286 58.9316 57.0819 57.5742 55.8727C57.5434 55.8454 57.516 55.8145 57.4925 55.7807L56.3888 54.3739C56.3735 54.3518 56.3548 54.3314 56.336 54.3092C56.2577 54.3739 56.1811 54.4318 56.1027 54.5C56.1095 54.5204 56.1249 54.5425 56.1385 54.563L57.2097 55.9902C57.2403 56.0318 57.2676 56.0756 57.2915 56.1213C58.1039 57.7325 58.9146 59.3471 59.7253 60.9599C59.7385 60.9818 59.7472 61.0061 59.7508 61.0315H59.7457V61.0178Z" fill="#010088"/>
<path fill-rule="evenodd" clip-rule="evenodd" d="M59.7288 61.0179C59.7458 61.0349 59.756 61.0536 59.7696 61.069C59.7611 61.0724 59.7611 61.0775 59.7509 61.0792C59.7475 61.0554 59.7356 61.04 59.7322 61.0179H59.7288Z" fill="#010088"/>
</g>
<defs>
<clipPath id="clip0_0_44">
<rect width="109" height="109" fill="white"/>
</clipPath>
</defs>
</svg>
