<svg width="109" height="109" viewBox="0 0 109 109" fill="none" xmlns="http://www.w3.org/2000/svg">
<g clip-path="url(#clip0_0_60)">
<path d="M109 73.2344C109 83.5809 103.255 91.9688 91.9689 91.9688H17.0314C5.74476 91.9688 0.00012207 83.5809 0.00012207 73.2344V35.7656C0.00012207 25.4191 5.74476 17.0312 17.0314 17.0312H91.9689C103.255 17.0312 109 25.4191 109 35.7656V73.2344Z" fill="#E6E7E8"/>
<path d="M74.8882 55.4691C74.8882 66.1886 66.1955 74.8847 55.4726 74.8847C44.7565 74.8847 36.0655 66.1903 36.0655 55.4691C36.0655 44.7479 44.7565 36.0569 55.4726 36.0569C66.1938 36.0569 74.8882 44.7479 74.8882 55.4691Z" fill="#EC1C24"/>
</g>
<defs>
<clipPath id="clip0_0_60">
<rect width="109" height="109" fill="white"/>
</clipPath>
</defs>
</svg>
