<svg width="109" height="109" viewBox="0 0 109 109" fill="none" xmlns="http://www.w3.org/2000/svg">
<g clip-path="url(#clip0_0_63)">
<path d="M109 73.2344C109 83.5809 103.255 91.9688 91.9689 91.9688H17.0314C5.74476 91.9688 0.00012207 83.5809 0.00012207 73.2344V35.7656C0.00012207 25.4191 5.74476 17.0312 17.0314 17.0312H91.9689C103.255 17.0312 109 25.4191 109 35.7656V73.2344Z" fill="#E6E7E8"/>
<path d="M58.8005 48.7877C60.6791 47.9617 62.607 47.9208 64.5894 48.6617C66.6689 49.4434 68.0962 50.6799 68.8677 52.3779C69.6426 54.0793 69.7346 56.181 69.1487 58.6863C70.5231 54.2973 70.3647 50.2422 68.6701 46.5242C66.9806 42.8114 64.1057 40.1886 60.0438 38.6711C56.084 37.1826 52.1379 37.3206 48.2088 39.0646C44.278 40.812 41.5819 43.6426 40.1172 47.5444C39.327 49.6648 39.3542 51.7069 40.216 53.6706C41.0744 55.636 42.5288 57.0002 44.5777 57.7683C46.5618 58.5091 48.4915 58.47 50.3751 57.6576C52.2605 56.8401 53.6264 55.4503 54.478 53.473L54.6875 52.9774C55.5509 51.0103 56.9237 49.612 58.8005 48.7877Z" fill="#EC1C24"/>
<path d="M50.4654 57.4447C48.5852 58.2724 46.6555 58.3133 44.6799 57.5742C42.5987 56.7941 41.1698 55.5543 40.3982 53.8545C39.6267 52.1565 39.533 50.0549 40.1138 47.5513C38.7428 51.9368 38.9046 55.9903 40.5958 59.7065C42.2887 63.4261 45.1619 66.0421 49.2204 67.563C53.1819 69.0464 57.128 68.9102 61.0606 67.1713C64.9863 65.4222 67.6857 62.595 69.1453 58.6914C69.9423 56.571 69.9151 54.5273 69.0533 52.567C68.1915 50.6016 66.7371 49.2357 64.6848 48.4676C62.7075 47.725 60.7778 47.7642 58.8942 48.5783C57.0105 49.3941 55.6429 50.7889 54.7913 52.7594L54.5802 53.2567C53.7184 55.2187 52.3423 56.6187 50.4654 57.4447Z" fill="#1B75BB"/>
<path d="M40.9433 26.315C41.0523 26.4258 41.1134 26.575 41.1134 26.7305C41.1134 26.886 41.0523 27.0352 40.9433 27.1461L30.5576 37.5283C30.5034 37.5828 30.4389 37.626 30.368 37.6556C30.297 37.6852 30.221 37.7004 30.1441 37.7006C30.0672 37.7008 29.9911 37.6858 29.92 37.6565C29.849 37.6272 29.7844 37.5843 29.7299 37.53C29.6754 37.4758 29.6322 37.4114 29.6026 37.3404C29.5731 37.2695 29.5578 37.1934 29.5576 37.1165C29.5575 37.0397 29.5724 36.9635 29.6017 36.8925C29.631 36.8214 29.674 36.7568 29.7282 36.7023L40.1121 26.3167C40.1665 26.2618 40.2311 26.2181 40.3024 26.1883C40.3737 26.1585 40.4501 26.1431 40.5274 26.1429C40.6046 26.1428 40.6811 26.1579 40.7525 26.1874C40.8239 26.2169 40.8887 26.2603 40.9433 26.315ZM42.8167 28.1867C42.8714 28.241 42.9149 28.3056 42.9445 28.3768C42.9742 28.448 42.9895 28.5243 42.9895 28.6014C42.9895 28.6785 42.9742 28.7548 42.9445 28.826C42.9149 28.8972 42.8714 28.9618 42.8167 29.0161L32.4379 39.4001C32.3274 39.5099 32.178 39.5715 32.0223 39.5715C31.8666 39.5715 31.7172 39.5099 31.6067 39.4001C31.5513 39.346 31.5073 39.2813 31.4772 39.21C31.4472 39.1386 31.4317 39.0619 31.4317 38.9845C31.4317 38.9071 31.4472 38.8304 31.4772 38.759C31.5073 38.6877 31.5513 38.623 31.6067 38.5689L41.9907 28.1867C42.1002 28.0772 42.2488 28.0157 42.4037 28.0157C42.5586 28.0157 42.7072 28.0772 42.8167 28.1867ZM44.7583 30.13C44.8137 30.1841 44.8577 30.2487 44.8878 30.3201C44.9178 30.3914 44.9333 30.4681 44.9333 30.5455C44.9333 30.623 44.9178 30.6996 44.8878 30.771C44.8577 30.8423 44.8137 30.907 44.7583 30.9611L34.3726 41.3467C34.3186 41.4014 34.2543 41.4447 34.1834 41.4743C34.1125 41.504 34.0364 41.5192 33.9596 41.5192C33.8828 41.5192 33.8067 41.504 33.7358 41.4743C33.6649 41.4447 33.6006 41.4014 33.5466 41.3467C33.4363 41.2362 33.3743 41.0865 33.3743 40.9303C33.3743 40.7742 33.4363 40.6244 33.5466 40.5139L43.9288 30.13C43.9832 30.0752 44.0478 30.0318 44.1189 30.0021C44.1901 29.9725 44.2665 29.9572 44.3436 29.9572C44.4207 29.9572 44.497 29.9725 44.5682 30.0021C44.6394 30.0318 44.704 30.0752 44.7583 30.13ZM73.2515 31.7564C73.4968 31.564 73.7284 31.3545 73.9635 31.1467L69.1334 26.315C69.0232 26.2047 68.8737 26.1428 68.7178 26.1428C68.562 26.1428 68.4125 26.2047 68.3023 26.315C68.1921 26.4252 68.1301 26.5746 68.1301 26.7305C68.1301 26.8864 68.1921 27.0359 68.3023 27.1461L73.0966 31.9387C73.1357 31.8683 73.1884 31.8064 73.2515 31.7564ZM79.519 36.7006L74.8303 32.0102C74.5391 32.2708 74.2428 32.5314 73.9345 32.7732L78.6879 37.5266C78.8 37.6235 78.9445 37.6744 79.0926 37.6693C79.2406 37.6641 79.3812 37.6032 79.4863 37.4988C79.5914 37.3944 79.6531 37.2541 79.6592 37.1061C79.6653 36.9581 79.6152 36.8133 79.519 36.7006ZM77.6473 39.3932C77.5372 39.503 77.3881 39.5646 77.2326 39.5646C77.0771 39.5646 76.928 39.503 76.8179 39.3932L66.4322 29.0093C66.3741 28.9556 66.3274 28.8907 66.2949 28.8184C66.2625 28.7462 66.245 28.6682 66.2435 28.589C66.2419 28.5099 66.2564 28.4312 66.286 28.3578C66.3157 28.2844 66.3598 28.2177 66.4159 28.1618C66.4719 28.1058 66.5387 28.0618 66.6122 28.0323C66.6856 28.0029 66.7643 27.9885 66.8435 27.9902C66.9226 27.9919 67.0006 28.0096 67.0728 28.0422C67.1449 28.0748 67.2098 28.1216 67.2634 28.1799L77.6473 38.5621C77.7019 38.6167 77.7452 38.6815 77.7747 38.7528C77.8043 38.8241 77.8195 38.9005 77.8195 38.9777C77.8195 39.0549 77.8043 39.1313 77.7747 39.2026C77.7452 39.2739 77.7019 39.3387 77.6473 39.3932ZM69.2168 35.6362C69.52 35.4011 69.7738 35.1184 70.0088 34.8135L65.3235 30.13C65.2698 30.0718 65.2049 30.0251 65.1326 29.9927C65.0604 29.9602 64.9824 29.9427 64.9032 29.9412C64.8241 29.9396 64.7454 29.9541 64.672 29.9838C64.5986 30.0134 64.5319 30.0575 64.476 30.1136C64.42 30.1696 64.376 30.2364 64.3465 30.3099C64.3171 30.3834 64.3027 30.462 64.3044 30.5412C64.3061 30.6203 64.3238 30.6983 64.3564 30.7705C64.389 30.8427 64.4358 30.9075 64.4941 30.9611L69.1998 35.6634C69.1981 35.6617 69.2066 35.6498 69.2168 35.6362ZM75.7041 40.5139L70.8774 35.6873C70.6287 35.9938 70.3511 36.2714 70.0548 36.5218L74.8746 41.345C74.9286 41.4004 74.9931 41.4444 75.0643 41.4744C75.1355 41.5045 75.212 41.52 75.2893 41.52C75.3666 41.52 75.4432 41.5045 75.5144 41.4744C75.5856 41.4444 75.6501 41.4004 75.7041 41.345C75.7586 41.2905 75.8019 41.2257 75.8315 41.1544C75.861 41.0831 75.8762 41.0067 75.8762 40.9295C75.8762 40.8523 75.861 40.7759 75.8315 40.7046C75.8019 40.6333 75.7586 40.5685 75.7041 40.5139ZM73.163 74.3891L68.5032 79.0522C68.3935 79.1623 68.3319 79.3115 68.3319 79.4669C68.3319 79.6224 68.3935 79.7715 68.5032 79.8816C68.5575 79.9364 68.6221 79.9798 68.6933 80.0095C68.7645 80.0391 68.8408 80.0544 68.9179 80.0544C68.9951 80.0544 69.0714 80.0391 69.1426 80.0095C69.2137 79.9798 69.2784 79.9364 69.3327 79.8816L73.96 75.2508C73.6961 74.9613 73.4321 74.6752 73.163 74.3891ZM79.7183 68.67C79.6069 68.5607 79.4569 68.4999 79.3008 68.5009C79.1448 68.5019 78.9955 68.5645 78.8855 68.6751L74.0333 73.5239C74.3007 73.8151 74.5664 74.0995 74.8321 74.3857L79.7183 69.5028C79.8266 69.3912 79.8872 69.2419 79.8872 69.0864C79.8872 68.9309 79.8266 68.7815 79.7183 68.67ZM71.3423 72.473L66.6298 77.1805C66.5208 77.2913 66.4597 77.4406 66.4597 77.5961C66.4597 77.7515 66.5208 77.9008 66.6298 78.0116C66.7406 78.1221 66.8906 78.1841 67.0471 78.1841C67.2035 78.1841 67.3535 78.1221 67.4643 78.0116L72.1513 73.3212C71.8788 73.0351 71.6148 72.749 71.3423 72.473ZM77.8432 66.7965C77.7893 66.742 77.7251 66.6986 77.6544 66.669C77.5836 66.6394 77.5077 66.6242 77.431 66.6242C77.3543 66.6242 77.2784 66.6394 77.2077 66.669C77.1369 66.6986 77.0727 66.742 77.0189 66.7965L72.2126 71.5993C72.4886 71.8787 72.7508 72.1631 73.025 72.4475L77.8449 67.626C77.9001 67.5719 77.944 67.5073 77.9739 67.436C78.0038 67.3647 78.0191 67.2882 78.019 67.2109C78.0188 67.1336 78.0032 67.0571 77.973 66.9859C77.9428 66.9148 77.8987 66.8504 77.8432 66.7965ZM69.3173 70.6098L64.6848 75.2372C64.5766 75.3485 64.5161 75.4976 64.5161 75.6528C64.5161 75.808 64.5766 75.9571 64.6848 76.0683C64.7956 76.1788 64.9457 76.2408 65.1021 76.2408C65.2585 76.2408 65.4086 76.1788 65.5194 76.0683L70.1825 71.3984C69.8964 71.1361 69.6205 70.8568 69.3173 70.6098ZM71.0613 70.5264L75.8999 65.681C75.9555 65.627 75.9998 65.5624 76.0299 65.491C76.0601 65.4197 76.0757 65.3429 76.0757 65.2654C76.0757 65.1879 76.0601 65.1112 76.0299 65.0398C75.9998 64.9684 75.9555 64.9038 75.8999 64.8499C75.8459 64.7952 75.7816 64.7519 75.7107 64.7222C75.6398 64.6926 75.5637 64.6774 75.4869 64.6774C75.4101 64.6774 75.334 64.6926 75.2631 64.7222C75.1922 64.7519 75.1279 64.7952 75.0739 64.8499L70.191 69.7327C70.4959 69.9865 70.7718 70.2607 71.0613 70.5264ZM36.1881 74.4402C35.9429 74.6309 35.713 74.8421 35.4745 75.0499L40.308 79.8816C40.3622 79.9363 40.4266 79.9797 40.4977 80.0094C40.5687 80.039 40.6449 80.0542 40.7219 80.0542C40.7988 80.0542 40.875 80.039 40.9461 80.0094C41.0171 79.9797 41.0816 79.9363 41.1357 79.8816C41.1907 79.8275 41.2343 79.7629 41.2641 79.6917C41.2939 79.6205 41.3092 79.5441 41.3092 79.4669C41.3092 79.3898 41.2939 79.3134 41.2641 79.2422C41.2343 79.171 41.1907 79.1064 41.1357 79.0522L36.3448 74.2562C36.3039 74.3263 36.2508 74.3886 36.1881 74.4402ZM29.9258 69.496L34.6128 74.1864C34.9057 73.9275 35.1969 73.6652 35.5069 73.4251L30.7535 68.67C30.6418 68.5715 30.4968 68.5192 30.3479 68.5238C30.1991 68.5284 30.0576 68.5895 29.9521 68.6947C29.8467 68.7999 29.7853 68.9413 29.7804 69.0901C29.7755 69.239 29.8275 69.3841 29.9258 69.496ZM43.0041 77.1856L38.2711 72.4526C38.0105 72.6928 37.7533 72.9397 37.4808 73.1645C37.4451 73.1952 37.4093 73.2071 37.3769 73.2258L42.1712 78.0167C42.2258 78.0714 42.2906 78.1148 42.3619 78.1444C42.4333 78.1741 42.5098 78.1894 42.587 78.1894C42.6643 78.1895 42.7408 78.1744 42.8122 78.1449C42.8836 78.1154 42.9485 78.0721 43.0032 78.0176C43.0579 77.963 43.1013 77.8982 43.1309 77.8268C43.1606 77.7555 43.1759 77.679 43.1759 77.6018C43.176 77.5245 43.1609 77.448 43.1314 77.3766C43.1019 77.3052 43.0586 77.2403 43.0041 77.1856ZM36.585 72.3198C36.8677 72.0796 37.1334 71.8276 37.4059 71.5755L32.6235 66.7965C32.5699 66.7383 32.5051 66.6914 32.4329 66.6588C32.3608 66.6263 32.2828 66.6086 32.2036 66.6069C32.1245 66.6052 32.0458 66.6195 31.9723 66.649C31.8988 66.6785 31.8321 66.7225 31.776 66.7784C31.72 66.8344 31.6758 66.901 31.6462 66.9745C31.6166 67.0479 31.6021 67.1265 31.6036 67.2057C31.6051 67.2848 31.6226 67.3629 31.6551 67.4351C31.6875 67.5073 31.7342 67.5722 31.7924 67.626L36.5407 72.3743C36.5611 72.3555 36.5662 72.3402 36.585 72.3198ZM33.7425 64.855C33.7963 64.7997 33.8606 64.7557 33.9317 64.7257C34.0028 64.6957 34.0792 64.6802 34.1563 64.6802C34.2335 64.6802 34.3099 64.6957 34.3809 64.7257C34.452 64.7557 34.5164 64.7997 34.5702 64.855L44.9558 75.2372C45.0657 75.3476 45.1273 75.497 45.1273 75.6528C45.1273 75.8085 45.0657 75.9579 44.9558 76.0683C44.9015 76.1233 44.8368 76.167 44.7655 76.1968C44.6941 76.2266 44.6176 76.242 44.5403 76.242C44.463 76.242 44.3864 76.2266 44.3151 76.1968C44.2438 76.167 44.179 76.1233 44.1247 76.0683L33.7425 65.6827C33.6871 65.6289 33.6432 65.5645 33.6132 65.4935C33.5831 65.4224 33.5677 65.346 33.5677 65.2688C33.5677 65.1917 33.5831 65.1153 33.6132 65.0442C33.6432 64.9731 33.6871 64.9088 33.7425 64.855Z" fill="#231F20"/>
<path d="M29.9002 68.653C29.9547 68.5984 30.0195 68.5551 30.0908 68.5256C30.1621 68.496 30.2385 68.4808 30.3157 68.4808C30.3929 68.4808 30.4693 68.496 30.5406 68.5256C30.6119 68.5551 30.6767 68.5984 30.7313 68.653L41.1118 79.0352C41.1664 79.0898 41.2097 79.1546 41.2392 79.2259C41.2688 79.2972 41.284 79.3736 41.284 79.4508C41.284 79.528 41.2688 79.6044 41.2392 79.6757C41.2097 79.747 41.1664 79.8118 41.1118 79.8664C41.0573 79.9209 40.9925 79.9642 40.9212 79.9938C40.8499 80.0233 40.7735 80.0385 40.6963 80.0385C40.6191 80.0385 40.5427 80.0233 40.4714 79.9938C40.4001 79.9642 40.3353 79.9209 40.2807 79.8664L29.9002 69.4841C29.8452 69.4298 29.8015 69.3651 29.7717 69.2937C29.7419 69.2224 29.7266 69.1459 29.7266 69.0686C29.7266 68.9913 29.7419 68.9147 29.7717 68.8434C29.8015 68.772 29.8452 68.7073 29.9002 68.653ZM40.2279 70.5605C39.9291 70.7995 39.6628 71.0766 39.436 71.3848L44.1196 76.0684C44.2298 76.1786 44.3793 76.2405 44.5351 76.2405C44.691 76.2405 44.8405 76.1786 44.9507 76.0684C45.0609 75.9582 45.1228 75.8087 45.1228 75.6528C45.1228 75.497 45.0609 75.3475 44.9507 75.2373L40.2449 70.5349L40.2279 70.5605ZM33.7424 65.6827L38.564 70.5094C38.8143 70.2028 39.0885 69.9269 39.39 69.6749L34.5701 64.855C34.5163 64.7997 34.452 64.7557 34.3809 64.7257C34.3098 64.6957 34.2334 64.6802 34.1563 64.6802C34.0791 64.6802 34.0027 64.6957 33.9316 64.7257C33.8606 64.7557 33.7962 64.7997 33.7424 64.855C33.6871 64.9088 33.6431 64.9732 33.6131 65.0443C33.5831 65.1153 33.5676 65.1917 33.5676 65.2689C33.5676 65.3461 33.5831 65.4224 33.6131 65.4935C33.6431 65.5646 33.6871 65.6289 33.7424 65.6827Z" fill="#231F20"/>
</g>
<defs>
<clipPath id="clip0_0_63">
<rect width="109" height="109" fill="white"/>
</clipPath>
</defs>
</svg>
