<svg width="109" height="109" viewBox="0 0 109 109" fill="none" xmlns="http://www.w3.org/2000/svg">
<g clip-path="url(#clip0_0_26)">
<path d="M3.2855 85.1562H105.711C106.735 83.6371 107.508 81.9118 108.053 80.0469H0.938599C1.4836 81.9118 2.25682 83.6371 3.2804 85.1562" fill="#EC1C24"/>
<path d="M42.5782 28.9531H108.057C107.512 27.0882 106.738 25.3629 105.715 23.8438H42.5799L42.5782 28.9531Z" fill="#E6E7E8"/>
<path d="M42.5782 34.0625H108.941C108.837 32.3318 108.54 30.6181 108.057 28.9531H42.5782V34.0625Z" fill="#EC1C24"/>
<path d="M108.941 34.0625H42.5782V39.1719H109V35.7656C109 35.19 108.975 34.6245 108.941 34.0625Z" fill="#E6E7E8"/>
<path d="M42.5782 39.1719H109V44.2812H42.5782V39.1719Z" fill="#EC1C24"/>
<path d="M42.5782 44.2812H109V49.3906H42.5782V44.2812Z" fill="#E6E7E8"/>
<path d="M42.5782 49.3906H109V54.5H42.5782V49.3906Z" fill="#EC1C24"/>
<path d="M42.5782 54.5H109V59.6094H42.5782V54.5Z" fill="#E6E7E8"/>
<path d="M0.00012207 59.6094V64.7188H109V59.6094H42.5782H0.00012207Z" fill="#EC1C24"/>
<path d="M0.00012207 64.7188H109V69.8281H0.00012207V64.7188Z" fill="#E6E7E8"/>
<path d="M0.00012207 73.2344C0.00012207 73.81 0.0256689 74.3755 0.0597314 74.9375H108.941C108.975 74.3755 109 73.81 109 73.2344V69.8281H0.00012207V73.2344Z" fill="#EC1C24"/>
<path d="M0.943614 80.0469H108.058C108.54 78.3815 108.837 76.668 108.942 74.9375H0.0596924C0.164428 76.6681 0.460882 78.3817 0.943614 80.0469Z" fill="#E6E7E8"/>
<path d="M105.713 23.8438C102.908 19.683 98.313 17.0312 91.9689 17.0312H42.5782V23.8438H105.713Z" fill="#EC1C24"/>
<path d="M17.0313 91.9688H91.9688C98.3164 91.9688 102.91 89.317 105.713 85.1562H3.28711C6.09216 89.317 10.6855 91.9688 17.0313 91.9688Z" fill="#E6E7E8"/>
<path d="M17.0314 17.0312C10.6838 17.0312 6.0905 19.683 3.28716 23.8438C2.26358 25.3629 1.49036 27.0882 0.945362 28.9531C0.463448 30.6185 0.167009 32.332 0.0614404 34.0625C0.0273779 34.6245 0.00183105 35.19 0.00183105 35.7656V59.6094H42.58V17.0312H17.0331" fill="#2B3990"/>
<path fill-rule="evenodd" clip-rule="evenodd" d="M25.2796 45.3304C23.0332 48.8422 18.3445 51.0529 13.4361 49.6256C8.81722 48.2682 5.63749 43.7839 5.90318 38.9539C6.15865 34.0931 9.79993 29.9682 14.5414 29.1268C19.5656 28.2293 23.5969 30.9253 25.3205 33.7423C23.2819 31.7377 20.9026 30.8334 18.1265 31.1518C15.9482 31.3988 14.1242 32.3832 12.7003 34.0472C9.91233 37.2916 10.0179 42.1591 12.9303 45.2265C14.5959 46.9807 16.6516 47.897 19.0803 47.9191C21.5004 47.9395 23.5595 47.0233 25.2796 45.3304Z" fill="#F9CB38"/>
<path fill-rule="evenodd" clip-rule="evenodd" d="M27.9246 42.1677C26.8414 42.7314 25.765 43.2969 24.6835 43.8521C24.6699 43.8401 24.6648 43.8265 24.6512 43.8163C25.4568 42.9188 26.2555 42.0161 27.0628 41.11C27.0588 41.0871 27.0519 41.0648 27.0424 41.0436C25.8366 41.0828 24.6154 41.1339 23.4028 41.1748C23.4028 41.1543 23.3943 41.139 23.3892 41.1254C24.4962 40.6604 25.6117 40.1835 26.7222 39.7237C26.7222 39.7016 26.7222 39.676 26.729 39.6556C25.6049 39.1736 24.4775 38.6984 23.3534 38.2164C23.3602 38.2062 23.3602 38.196 23.3602 38.179C24.5865 38.2301 25.8093 38.2794 27.0373 38.3271C27.0424 38.3101 27.0577 38.288 27.0679 38.2607L24.6886 35.5681C24.6955 35.5493 24.7057 35.5374 24.7159 35.5204C25.7889 36.0841 26.8686 36.6444 28.0166 37.2456L27.0441 33.71C27.0594 33.6963 27.0696 33.6912 27.0849 33.6793C27.8037 34.645 28.5258 35.6021 29.2479 36.5695H29.3211C29.546 35.3961 29.7691 34.2243 29.9956 33.0543H30.0484C30.2647 34.226 30.4912 35.3909 30.7296 36.6444L32.9675 33.6793C32.9791 33.6857 32.9911 33.6914 33.0033 33.6963C32.6814 34.8511 32.3527 36.0041 32.0359 37.1588C32.0478 37.1775 32.0666 37.1963 32.0751 37.2133C33.1481 36.6632 34.221 36.1114 35.2889 35.5579C35.3008 35.5766 35.3195 35.5834 35.3298 35.6004C34.5412 36.4912 33.7544 37.3802 32.9658 38.2658C32.9658 38.2863 32.9778 38.3084 32.9778 38.3322C34.1853 38.2897 35.3911 38.2471 36.5952 38.1994C36.602 38.2164 36.6071 38.2369 36.6122 38.259C35.5052 38.724 34.3982 39.1889 33.2979 39.6573C33.2894 39.6811 33.2894 39.705 33.2894 39.722C34.4237 40.2074 35.5529 40.6894 36.6855 41.1697C36.6786 41.1816 36.6786 41.1935 36.6735 41.2054C35.4473 41.1509 34.2159 41.1032 32.9846 41.0521C32.9778 41.0743 32.9658 41.0947 32.9539 41.1203C33.7544 42.0195 34.5514 42.9273 35.3502 43.8282C35.3439 43.8426 35.3332 43.8545 35.3196 43.8623L32.0853 42.1762L32.0223 42.212C32.3408 43.3667 32.6559 44.5197 32.9778 45.671C32.9658 45.6829 32.9471 45.6897 32.9352 45.6983L30.7688 42.8064C30.745 42.8098 30.7296 42.8166 30.7024 42.82C30.4742 43.9934 30.2476 45.1771 30.0245 46.3506C30.0041 46.3557 29.9939 46.3557 29.982 46.3557C29.7571 45.1771 29.5323 43.9934 29.3143 42.8166C29.2905 42.8098 29.2666 42.8064 29.2479 42.7995L27.0645 45.6983C27.0441 45.6897 27.0321 45.6897 27.0236 45.6761C27.3438 44.5197 27.6674 43.3667 27.9961 42.212C27.9717 42.1981 27.9479 42.1833 27.9246 42.1677Z" fill="#F9CB38"/>
</g>
<defs>
<clipPath id="clip0_0_26">
<rect width="109" height="109" fill="white"/>
</clipPath>
</defs>
</svg>
