<svg width="109" height="109" viewBox="0 0 109 109" fill="none" xmlns="http://www.w3.org/2000/svg">
<g clip-path="url(#clip0_0_56)">
<path d="M0.00012207 37.4688H109V71.5312H0.00012207V37.4688Z" fill="#2B3990"/>
<path d="M17.0313 91.9688H91.9688C100.631 91.9688 106.014 87.0212 108.057 80.0469H0.943604C2.98565 87.0212 8.36923 91.9688 17.0313 91.9688ZM91.9688 17.0312H17.0313C8.36923 17.0312 2.98565 21.9788 0.943604 28.9531H108.058C106.014 21.9788 100.631 17.0312 91.9688 17.0312Z" fill="#EC1C24"/>
<path d="M109 71.5312H0.000290291V73.2344C0.000290291 75.6409 0.323884 77.9333 0.943822 80.0469H108.058C108.677 77.9333 109 75.6409 109 73.2344V71.5312ZM109 35.7656C109 33.3591 108.677 31.0667 108.057 28.9531H0.943822C0.306722 31.1675 -0.0109933 33.4615 0.000290291 35.7656V37.4688H109V35.7656Z" fill="#E6E7E8"/>
</g>
<defs>
<clipPath id="clip0_0_56">
<rect width="109" height="109" fill="white"/>
</clipPath>
</defs>
</svg>
